<mxfile host="app.diagrams.net" modified="2022-09-06T16:06:38.327Z" agent="5.0 (Windows NT 10.0; Win64; x64) AppleWebKit/537.36 (KHTML, like Gecko) Chrome/104.0.0.0 Safari/537.36" etag="qAqWafJY_sQMyHc10ALP" version="20.2.8" type="github">
  <diagram id="C5RBs43oDa-KdzZeNtuy" name="Page-1">
    <mxGraphModel dx="1422" dy="952" grid="1" gridSize="10" guides="1" tooltips="1" connect="1" arrows="1" fold="1" page="1" pageScale="1" pageWidth="827" pageHeight="1169" math="0" shadow="0">
      <root>
        <mxCell id="WIyWlLk6GJQsqaUBKTNV-0" />
        <mxCell id="WIyWlLk6GJQsqaUBKTNV-1" parent="WIyWlLk6GJQsqaUBKTNV-0" />
        <mxCell id="bLsd49CdOlQVZJZ-Yvso-15" value="" style="edgeStyle=orthogonalEdgeStyle;rounded=0;orthogonalLoop=1;jettySize=auto;html=1;" edge="1" parent="WIyWlLk6GJQsqaUBKTNV-1" source="bLsd49CdOlQVZJZ-Yvso-0" target="bLsd49CdOlQVZJZ-Yvso-1">
          <mxGeometry relative="1" as="geometry" />
        </mxCell>
        <mxCell id="bLsd49CdOlQVZJZ-Yvso-0" value="Start&lt;br&gt;" style="ellipse;whiteSpace=wrap;html=1;" vertex="1" parent="WIyWlLk6GJQsqaUBKTNV-1">
          <mxGeometry x="40" y="30" width="120" height="80" as="geometry" />
        </mxCell>
        <mxCell id="bLsd49CdOlQVZJZ-Yvso-16" value="" style="edgeStyle=orthogonalEdgeStyle;rounded=0;orthogonalLoop=1;jettySize=auto;html=1;" edge="1" parent="WIyWlLk6GJQsqaUBKTNV-1" source="bLsd49CdOlQVZJZ-Yvso-1" target="bLsd49CdOlQVZJZ-Yvso-13">
          <mxGeometry relative="1" as="geometry" />
        </mxCell>
        <mxCell id="bLsd49CdOlQVZJZ-Yvso-1" value="Input: int[] array" style="rounded=1;whiteSpace=wrap;html=1;" vertex="1" parent="WIyWlLk6GJQsqaUBKTNV-1">
          <mxGeometry x="40" y="140" width="120" height="60" as="geometry" />
        </mxCell>
        <mxCell id="bLsd49CdOlQVZJZ-Yvso-20" style="edgeStyle=orthogonalEdgeStyle;rounded=0;orthogonalLoop=1;jettySize=auto;html=1;exitX=0;exitY=0.5;exitDx=0;exitDy=0;entryX=0;entryY=0.5;entryDx=0;entryDy=0;" edge="1" parent="WIyWlLk6GJQsqaUBKTNV-1">
          <mxGeometry relative="1" as="geometry">
            <mxPoint x="570" y="270" as="sourcePoint" />
            <mxPoint x="570" y="270" as="targetPoint" />
          </mxGeometry>
        </mxCell>
        <mxCell id="bLsd49CdOlQVZJZ-Yvso-23" value="false" style="edgeStyle=orthogonalEdgeStyle;rounded=0;orthogonalLoop=1;jettySize=auto;html=1;entryX=0.5;entryY=0;entryDx=0;entryDy=0;" edge="1" parent="WIyWlLk6GJQsqaUBKTNV-1" source="bLsd49CdOlQVZJZ-Yvso-4" target="bLsd49CdOlQVZJZ-Yvso-6">
          <mxGeometry relative="1" as="geometry" />
        </mxCell>
        <mxCell id="bLsd49CdOlQVZJZ-Yvso-28" value="true" style="edgeStyle=orthogonalEdgeStyle;rounded=0;orthogonalLoop=1;jettySize=auto;html=1;entryX=0.5;entryY=0;entryDx=0;entryDy=0;" edge="1" parent="WIyWlLk6GJQsqaUBKTNV-1" source="bLsd49CdOlQVZJZ-Yvso-4" target="bLsd49CdOlQVZJZ-Yvso-5">
          <mxGeometry relative="1" as="geometry" />
        </mxCell>
        <mxCell id="bLsd49CdOlQVZJZ-Yvso-4" value="array[j] &amp;gt; arr[j + 1]" style="rhombus;whiteSpace=wrap;html=1;" vertex="1" parent="WIyWlLk6GJQsqaUBKTNV-1">
          <mxGeometry x="595" y="360" width="180" height="80" as="geometry" />
        </mxCell>
        <mxCell id="bLsd49CdOlQVZJZ-Yvso-24" style="edgeStyle=orthogonalEdgeStyle;rounded=0;orthogonalLoop=1;jettySize=auto;html=1;entryX=0.25;entryY=0;entryDx=0;entryDy=0;" edge="1" parent="WIyWlLk6GJQsqaUBKTNV-1" source="bLsd49CdOlQVZJZ-Yvso-5" target="bLsd49CdOlQVZJZ-Yvso-6">
          <mxGeometry relative="1" as="geometry" />
        </mxCell>
        <mxCell id="bLsd49CdOlQVZJZ-Yvso-5" value="int temp = array[j]&lt;br&gt;array[j] = array[j + 1]&lt;br&gt;array[j + 1] = temp" style="rounded=0;whiteSpace=wrap;html=1;" vertex="1" parent="WIyWlLk6GJQsqaUBKTNV-1">
          <mxGeometry x="510" y="555" width="120" height="60" as="geometry" />
        </mxCell>
        <mxCell id="bLsd49CdOlQVZJZ-Yvso-26" value="" style="edgeStyle=orthogonalEdgeStyle;rounded=0;orthogonalLoop=1;jettySize=auto;html=1;" edge="1" parent="WIyWlLk6GJQsqaUBKTNV-1" source="bLsd49CdOlQVZJZ-Yvso-6" target="bLsd49CdOlQVZJZ-Yvso-25">
          <mxGeometry relative="1" as="geometry" />
        </mxCell>
        <mxCell id="bLsd49CdOlQVZJZ-Yvso-6" value="j++" style="rounded=0;whiteSpace=wrap;html=1;" vertex="1" parent="WIyWlLk6GJQsqaUBKTNV-1">
          <mxGeometry x="657.5" y="650" width="55" height="30" as="geometry" />
        </mxCell>
        <mxCell id="bLsd49CdOlQVZJZ-Yvso-18" value="true" style="edgeStyle=orthogonalEdgeStyle;rounded=0;orthogonalLoop=1;jettySize=auto;html=1;" edge="1" parent="WIyWlLk6GJQsqaUBKTNV-1" source="bLsd49CdOlQVZJZ-Yvso-11" target="bLsd49CdOlQVZJZ-Yvso-30">
          <mxGeometry x="-0.7133" relative="1" as="geometry">
            <mxPoint x="570" y="270" as="targetPoint" />
            <Array as="points">
              <mxPoint x="500" y="270" />
              <mxPoint x="500" y="270" />
            </Array>
            <mxPoint as="offset" />
          </mxGeometry>
        </mxCell>
        <mxCell id="bLsd49CdOlQVZJZ-Yvso-37" value="false" style="edgeStyle=orthogonalEdgeStyle;rounded=0;orthogonalLoop=1;jettySize=auto;html=1;entryX=1;entryY=0.5;entryDx=0;entryDy=0;" edge="1" parent="WIyWlLk6GJQsqaUBKTNV-1" source="bLsd49CdOlQVZJZ-Yvso-11" target="bLsd49CdOlQVZJZ-Yvso-12">
          <mxGeometry x="-0.9354" relative="1" as="geometry">
            <Array as="points">
              <mxPoint x="260" y="270" />
              <mxPoint x="260" y="760" />
            </Array>
            <mxPoint as="offset" />
          </mxGeometry>
        </mxCell>
        <mxCell id="bLsd49CdOlQVZJZ-Yvso-11" value="i &amp;lt; array.lenght" style="rhombus;whiteSpace=wrap;html=1;" vertex="1" parent="WIyWlLk6GJQsqaUBKTNV-1">
          <mxGeometry x="290" y="230" width="180" height="80" as="geometry" />
        </mxCell>
        <mxCell id="bLsd49CdOlQVZJZ-Yvso-12" value="the array is sorted" style="ellipse;whiteSpace=wrap;html=1;" vertex="1" parent="WIyWlLk6GJQsqaUBKTNV-1">
          <mxGeometry x="40" y="720" width="120" height="80" as="geometry" />
        </mxCell>
        <mxCell id="bLsd49CdOlQVZJZ-Yvso-17" style="edgeStyle=orthogonalEdgeStyle;rounded=0;orthogonalLoop=1;jettySize=auto;html=1;entryX=0.5;entryY=0;entryDx=0;entryDy=0;" edge="1" parent="WIyWlLk6GJQsqaUBKTNV-1" source="bLsd49CdOlQVZJZ-Yvso-13" target="bLsd49CdOlQVZJZ-Yvso-11">
          <mxGeometry relative="1" as="geometry">
            <Array as="points">
              <mxPoint x="233" y="270" />
              <mxPoint x="233" y="210" />
              <mxPoint x="380" y="210" />
            </Array>
          </mxGeometry>
        </mxCell>
        <mxCell id="bLsd49CdOlQVZJZ-Yvso-13" value="entering the&lt;br&gt;outer loop&lt;br&gt;&lt;br&gt;i = 0" style="shape=loopLimit;whiteSpace=wrap;html=1;" vertex="1" parent="WIyWlLk6GJQsqaUBKTNV-1">
          <mxGeometry x="25" y="230" width="150" height="80" as="geometry" />
        </mxCell>
        <mxCell id="bLsd49CdOlQVZJZ-Yvso-29" value="" style="edgeStyle=orthogonalEdgeStyle;rounded=0;orthogonalLoop=1;jettySize=auto;html=1;" edge="1" parent="WIyWlLk6GJQsqaUBKTNV-1" target="bLsd49CdOlQVZJZ-Yvso-4">
          <mxGeometry relative="1" as="geometry">
            <mxPoint x="685" y="310" as="sourcePoint" />
          </mxGeometry>
        </mxCell>
        <mxCell id="bLsd49CdOlQVZJZ-Yvso-27" value="true" style="edgeStyle=orthogonalEdgeStyle;rounded=0;orthogonalLoop=1;jettySize=auto;html=1;entryX=1;entryY=0.5;entryDx=0;entryDy=0;" edge="1" parent="WIyWlLk6GJQsqaUBKTNV-1" source="bLsd49CdOlQVZJZ-Yvso-25" target="bLsd49CdOlQVZJZ-Yvso-4">
          <mxGeometry relative="1" as="geometry">
            <mxPoint x="800" y="400" as="targetPoint" />
            <Array as="points">
              <mxPoint x="795" y="760" />
              <mxPoint x="795" y="400" />
            </Array>
          </mxGeometry>
        </mxCell>
        <mxCell id="bLsd49CdOlQVZJZ-Yvso-32" value="false" style="edgeStyle=orthogonalEdgeStyle;rounded=0;orthogonalLoop=1;jettySize=auto;html=1;" edge="1" parent="WIyWlLk6GJQsqaUBKTNV-1" source="bLsd49CdOlQVZJZ-Yvso-25" target="bLsd49CdOlQVZJZ-Yvso-31">
          <mxGeometry relative="1" as="geometry" />
        </mxCell>
        <mxCell id="bLsd49CdOlQVZJZ-Yvso-25" value="j &amp;lt; (array.lenght - 1)" style="rhombus;whiteSpace=wrap;html=1;" vertex="1" parent="WIyWlLk6GJQsqaUBKTNV-1">
          <mxGeometry x="595" y="720" width="180" height="80" as="geometry" />
        </mxCell>
        <mxCell id="bLsd49CdOlQVZJZ-Yvso-30" value="entering the&lt;br&gt;innerloop&lt;br&gt;&lt;br&gt;j = 0" style="shape=loopLimit;whiteSpace=wrap;html=1;" vertex="1" parent="WIyWlLk6GJQsqaUBKTNV-1">
          <mxGeometry x="610" y="230" width="150" height="80" as="geometry" />
        </mxCell>
        <mxCell id="bLsd49CdOlQVZJZ-Yvso-34" style="edgeStyle=orthogonalEdgeStyle;rounded=0;orthogonalLoop=1;jettySize=auto;html=1;entryX=0.5;entryY=1;entryDx=0;entryDy=0;" edge="1" parent="WIyWlLk6GJQsqaUBKTNV-1" source="bLsd49CdOlQVZJZ-Yvso-31" target="bLsd49CdOlQVZJZ-Yvso-33">
          <mxGeometry relative="1" as="geometry" />
        </mxCell>
        <mxCell id="bLsd49CdOlQVZJZ-Yvso-31" value="exiting the inner loop" style="shape=loopLimit;whiteSpace=wrap;html=1;" vertex="1" parent="WIyWlLk6GJQsqaUBKTNV-1">
          <mxGeometry x="305" y="720" width="150" height="80" as="geometry" />
        </mxCell>
        <mxCell id="bLsd49CdOlQVZJZ-Yvso-35" value="" style="edgeStyle=orthogonalEdgeStyle;rounded=0;orthogonalLoop=1;jettySize=auto;html=1;" edge="1" parent="WIyWlLk6GJQsqaUBKTNV-1" source="bLsd49CdOlQVZJZ-Yvso-33" target="bLsd49CdOlQVZJZ-Yvso-11">
          <mxGeometry relative="1" as="geometry">
            <Array as="points">
              <mxPoint x="380" y="330" />
              <mxPoint x="380" y="330" />
            </Array>
          </mxGeometry>
        </mxCell>
        <mxCell id="bLsd49CdOlQVZJZ-Yvso-33" value="i++" style="rounded=0;whiteSpace=wrap;html=1;" vertex="1" parent="WIyWlLk6GJQsqaUBKTNV-1">
          <mxGeometry x="352.5" y="385" width="55" height="30" as="geometry" />
        </mxCell>
        <mxCell id="bLsd49CdOlQVZJZ-Yvso-38" value="exiting the outer loop" style="shape=loopLimit;whiteSpace=wrap;html=1;" vertex="1" parent="WIyWlLk6GJQsqaUBKTNV-1">
          <mxGeometry x="190" y="440" width="150" height="80" as="geometry" />
        </mxCell>
      </root>
    </mxGraphModel>
  </diagram>
</mxfile>
